<svg width="105" height="28" viewBox="0 0 105 28" fill="none" xmlns="http://www.w3.org/2000/svg">
<g clip-path="url(#clip0_1_2536)">
<g clip-path="url(#clip1_1_2536)">
<path d="M0.575348 28.0001H10.0685C14.57 28.0001 18.2192 24.3509 18.2192 19.8494H8.72603C4.22453 19.8494 0.575348 23.4986 0.575348 28.0001Z" fill="#F22BB2"/>
<path d="M1 8.15069V20.137C5.5015 20.137 9.15069 16.4878 9.15069 11.9863V0C4.64919 0 1 3.64919 1 8.15069Z" fill="#8C30F5"/>
<path d="M27.4247 0H17.9315C13.43 0 9.78082 3.64919 9.78082 8.15068H19.274C23.7755 8.15068 27.4247 4.5015 27.4247 0Z" fill="#FE9A22"/>
<path d="M27.4247 19.3698V7.38354C22.9232 7.38354 19.274 11.0327 19.274 15.5342V27.5205C23.7755 27.5205 27.4247 23.8713 27.4247 19.3698Z" fill="#2EC5CE"/>
</g>
<g filter="url(#filter0_d_1_2536)">
<path d="M40.4 17.92V7.00002H37.2V21H45.4V17.92H40.4Z" fill="#0B0D17"/>
<path d="M53.8717 11V11.94C53.2117 11.18 52.2317 10.72 50.8917 10.72C48.2717 10.72 46.1117 13.02 46.1117 16C46.1117 18.98 48.2717 21.28 50.8917 21.28C52.2317 21.28 53.2117 20.82 53.8717 20.06V21H56.8717V11H53.8717ZM51.4917 18.44C50.1117 18.44 49.1117 17.5 49.1117 16C49.1117 14.5 50.1117 13.56 51.4917 13.56C52.8717 13.56 53.8717 14.5 53.8717 16C53.8717 17.5 52.8717 18.44 51.4917 18.44Z" fill="#0B0D17"/>
<path d="M64.9327 10.72C63.6127 10.72 62.6127 11.2 62.0727 11.94V11H59.0727V21H62.0727V15.54C62.0727 14.12 62.8327 13.48 63.9327 13.48C64.8927 13.48 65.6727 14.06 65.6727 15.3V21H68.6727V14.86C68.6727 12.16 66.9527 10.72 64.9327 10.72Z" fill="#0B0D17"/>
<path d="M77.9928 7.00002V11.94C77.3328 11.18 76.3528 10.72 75.0128 10.72C72.3928 10.72 70.2328 13.02 70.2328 16C70.2328 18.98 72.3928 21.28 75.0128 21.28C76.3528 21.28 77.3328 20.82 77.9928 20.06V21H80.9928V7.00002H77.9928ZM75.6128 18.44C74.2328 18.44 73.2328 17.5 73.2328 16C73.2328 14.5 74.2328 13.56 75.6128 13.56C76.9928 13.56 77.9928 14.5 77.9928 16C77.9928 17.5 76.9928 18.44 75.6128 18.44Z" fill="#0B0D17"/>
<path d="M84.6938 10.12C85.6738 10.12 86.4938 9.30002 86.4938 8.32002C86.4938 7.34002 85.6738 6.52002 84.6938 6.52002C83.7138 6.52002 82.8938 7.34002 82.8938 8.32002C82.8938 9.30002 83.7138 10.12 84.6938 10.12ZM83.1938 21H86.1938V11H83.1938V21Z" fill="#0B0D17"/>
<path d="M93.8891 9.60002V6.72002C90.5691 6.52002 89.0291 8.20002 89.0291 11H87.6891V13.88H89.0291V21H92.0291V13.88H93.8891V11H92.0291C92.0291 9.84002 92.7691 9.50002 93.8891 9.60002Z" fill="#0B0D17"/>
<path d="M101.681 11L99.8013 17.12L97.5813 11H94.2813L98.2613 20.54C97.8213 21.76 97.1613 22.2 95.7613 22.2V25C98.5613 25.14 100.341 23.88 101.461 20.7L104.881 11H101.681Z" fill="#0B0D17"/>
<path d="M40.9 17.42V7.00002V6.50002H40.4H37.2H36.7V7.00002V21V21.5H37.2H45.4H45.9V21V17.92V17.9037C46.612 20.1701 48.5657 21.78 50.8917 21.78C51.8724 21.78 52.7009 21.5521 53.3717 21.1363V21.5H53.8717H56.8717H57.3717V21V11V10.5H56.8717H53.8717H53.3717V10.8638C52.7009 10.4479 51.8724 10.22 50.8917 10.22C47.955 10.22 45.6117 12.7863 45.6117 16C45.6117 16.4907 45.6664 16.9663 45.7694 17.42H45.4H40.9ZM62.5727 10.822V10.5H62.0727H59.0727H58.5727V11V21V21.5H59.0727H62.0727H62.5727V21V15.54C62.5727 14.9162 62.7385 14.5426 62.949 14.3257C63.158 14.1103 63.4785 13.98 63.9327 13.98C64.3144 13.98 64.6155 14.0944 64.8178 14.2871C65.0151 14.4749 65.1727 14.7887 65.1727 15.3V21V21.5H65.6727H68.6727H69.1727V21V14.86C69.1727 13.4008 68.7055 12.2331 67.9175 11.4278C67.1314 10.6244 66.0628 10.22 64.9327 10.22C64.0165 10.22 63.2084 10.4336 62.5727 10.822ZM77.9928 6.50002H77.4928V7.00002V10.8638C76.822 10.4479 75.9935 10.22 75.0128 10.22C72.0761 10.22 69.7328 12.7863 69.7328 16C69.7328 19.2137 72.0761 21.78 75.0128 21.78C75.9935 21.78 76.822 21.5521 77.4928 21.1363V21.5H77.9928H80.9928H81.4928V21V7.00002V6.50002H80.9928H77.9928ZM82.6938 21V21.5H83.1938H86.1938H86.6938V21V11V10.5H86.1938H85.4194C86.3277 10.1914 86.9938 9.32343 86.9938 8.32002C86.9938 7.06388 85.9499 6.02002 84.6938 6.02002C83.4376 6.02002 82.3938 7.06388 82.3938 8.32002C82.3938 9.32342 83.0598 10.1914 83.9681 10.5H83.1938H82.6938V11V21ZM93.8446 10.098L94.3891 10.1467V9.60002V6.72002V6.24923L93.9191 6.22092C92.1763 6.11593 90.8071 6.49957 89.8733 7.36911C89.0456 8.13996 88.6294 9.22804 88.5452 10.5H87.6891H87.1891V11V13.88V14.38H87.6891H88.5291V21V21.5H89.0291H92.0291H92.5291V21V14.38H93.8891H94.3891V13.88V12.5571L97.7227 20.5477C97.5395 20.9931 97.3356 21.2509 97.0945 21.4111C96.8174 21.5953 96.4172 21.7 95.7613 21.7H95.2613V22.2V25V25.4756L95.7363 25.4994C97.2193 25.5735 98.4881 25.2779 99.5395 24.4963C100.583 23.7208 101.354 22.5098 101.933 20.8663C101.933 20.8662 101.933 20.8662 101.933 20.8661L105.353 11.1663L105.588 10.5H104.881H101.681H101.312L101.203 10.8532L99.7619 15.5453L98.0513 10.8295L97.9318 10.5H97.5813H94.3891H94.2813H93.8891H93.5309H92.6107C92.6652 10.3711 92.7406 10.2943 92.8172 10.2431C92.9997 10.1209 93.3241 10.0516 93.8446 10.098ZM51.4917 17.94C50.9174 17.94 50.4552 17.7463 50.1378 17.429C49.8213 17.1125 49.6117 16.6358 49.6117 16C49.6117 15.3643 49.8213 14.8876 50.1378 14.5711C50.4552 14.2537 50.9174 14.06 51.4917 14.06C52.0661 14.06 52.5283 14.2537 52.8457 14.5711C53.1622 14.8876 53.3717 15.3643 53.3717 16C53.3717 16.6358 53.1622 17.1125 52.8457 17.429C52.5283 17.7463 52.0661 17.94 51.4917 17.94ZM75.6128 17.94C75.0384 17.94 74.5762 17.7463 74.2589 17.429C73.9424 17.1125 73.7328 16.6358 73.7328 16C73.7328 15.3643 73.9424 14.8876 74.2589 14.5711C74.5762 14.2537 75.0384 14.06 75.6128 14.06C76.1872 14.06 76.6494 14.2537 76.9668 14.5711C77.2833 14.8876 77.4928 15.3643 77.4928 16C77.4928 16.6358 77.2833 17.1125 76.9668 17.429C76.6494 17.7463 76.1872 17.94 75.6128 17.94Z" stroke="black"/>
</g>
</g>
<defs>
<filter id="filter0_d_1_2536" x="32.2" y="5.52002" width="78.0942" height="28.4905" filterUnits="userSpaceOnUse" color-interpolation-filters="sRGB">
<feFlood flood-opacity="0" result="BackgroundImageFix"/>
<feColorMatrix in="SourceAlpha" type="matrix" values="0 0 0 0 0 0 0 0 0 0 0 0 0 0 0 0 0 0 127 0" result="hardAlpha"/>
<feOffset dy="4"/>
<feGaussianBlur stdDeviation="2"/>
<feComposite in2="hardAlpha" operator="out"/>
<feColorMatrix type="matrix" values="0 0 0 0 0 0 0 0 0 0 0 0 0 0 0 0 0 0 0.25 0"/>
<feBlend mode="normal" in2="BackgroundImageFix" result="effect1_dropShadow_1_2536"/>
<feBlend mode="normal" in="SourceGraphic" in2="effect1_dropShadow_1_2536" result="shape"/>
</filter>
<clipPath id="clip0_1_2536">
<rect width="105" height="28" fill="white"/>
</clipPath>
<clipPath id="clip1_1_2536">
<rect width="28" height="28" fill="white"/>
</clipPath>
</defs>
</svg>
